<svg width="167" height="143" viewBox="0 0 167 143" fill="none" xmlns="http://www.w3.org/2000/svg">
<foreignObject x="-10.8" y="-10.8" width="187.636" height="163.769"><div xmlns="http://www.w3.org/1999/xhtml" style="backdrop-filter:blur(5.4px);clip-path:url(#bgblur_0_32_18_clip_path);height:100%;width:100%"></div></foreignObject><path data-figma-bg-blur-radius="10.8" d="M22.5585 114.077C18.4915 114.02 8.33652 114.049 3.5598 114.067C2.14292 114.072 1 115.224 1 116.642V138.561C1 139.807 2.00842 140.816 3.25238 140.816C5.18299 140.816 5.40546 140.56 6.79184 140.494C8.29804 140.423 9.68775 140.494 10.6531 140.494H15.1578C15.1578 140.494 18.4917 140.487 20.6279 140.494C22.764 140.501 50.5524 141.138 50.5524 141.138C50.5524 141.138 53.6916 141.207 55.7007 141.138C57.5888 141.073 58.6423 140.942 60.5272 140.816C62.4121 140.691 63.474 140.682 65.3537 140.494L65.4812 140.481C67.2946 140.3 68.3539 140.195 70.1803 139.85C72.2171 139.465 73.3445 139.162 75.3286 138.561C77.7644 137.824 79.498 137.193 81.4422 136.306C83.3863 135.42 84.4777 134.895 86.2687 133.729C88.292 132.411 89.3635 131.547 91.0952 129.863C92.3083 128.684 92.8907 127.926 93.9912 126.641C95.0916 125.357 96.4385 123.768 97.8524 121.809C99.2662 119.85 101.392 116.332 101.392 116.332L104.931 110.211L163.171 7.76531L164.737 4.77311C165.635 3.05711 164.392 1 162.456 1H136.347C135.425 1 134.573 1.49419 134.114 2.2954L121.02 25.1618L91.417 77.6735L88.5211 82.828C88.5211 82.828 87.1619 85.3879 86.2687 87.016C85.3755 88.6442 84.5627 90.1919 83.3728 92.1706C82.1829 94.1492 80.8083 96.2413 79.8333 97.6472C78.8584 99.0531 78.332 99.8585 77.2592 101.191C76.1864 102.523 74.7262 104.188 73.0762 105.701C71.4262 107.214 68.5714 109.245 68.5714 109.245C68.5714 109.245 64.5699 111.577 62.1361 112.466C59.7022 113.356 58.2272 113.705 55.7007 114.077C53.1742 114.449 49.2653 114.399 49.2653 114.399C49.2653 114.399 41.4206 114.456 36.3946 114.399C31.3685 114.343 27.9627 114.154 22.5585 114.077Z" fill="url(#paint0_linear_32_18)" stroke="url(#paint1_linear_32_18)" stroke-width="2"/>
<defs>
<clipPath id="bgblur_0_32_18_clip_path" transform="translate(10.8 10.8)"><path d="M22.5585 114.077C18.4915 114.02 8.33652 114.049 3.5598 114.067C2.14292 114.072 1 115.224 1 116.642V138.561C1 139.807 2.00842 140.816 3.25238 140.816C5.18299 140.816 5.40546 140.56 6.79184 140.494C8.29804 140.423 9.68775 140.494 10.6531 140.494H15.1578C15.1578 140.494 18.4917 140.487 20.6279 140.494C22.764 140.501 50.5524 141.138 50.5524 141.138C50.5524 141.138 53.6916 141.207 55.7007 141.138C57.5888 141.073 58.6423 140.942 60.5272 140.816C62.4121 140.691 63.474 140.682 65.3537 140.494L65.4812 140.481C67.2946 140.3 68.3539 140.195 70.1803 139.85C72.2171 139.465 73.3445 139.162 75.3286 138.561C77.7644 137.824 79.498 137.193 81.4422 136.306C83.3863 135.42 84.4777 134.895 86.2687 133.729C88.292 132.411 89.3635 131.547 91.0952 129.863C92.3083 128.684 92.8907 127.926 93.9912 126.641C95.0916 125.357 96.4385 123.768 97.8524 121.809C99.2662 119.85 101.392 116.332 101.392 116.332L104.931 110.211L163.171 7.76531L164.737 4.77311C165.635 3.05711 164.392 1 162.456 1H136.347C135.425 1 134.573 1.49419 134.114 2.2954L121.02 25.1618L91.417 77.6735L88.5211 82.828C88.5211 82.828 87.1619 85.3879 86.2687 87.016C85.3755 88.6442 84.5627 90.1919 83.3728 92.1706C82.1829 94.1492 80.8083 96.2413 79.8333 97.6472C78.8584 99.0531 78.332 99.8585 77.2592 101.191C76.1864 102.523 74.7262 104.188 73.0762 105.701C71.4262 107.214 68.5714 109.245 68.5714 109.245C68.5714 109.245 64.5699 111.577 62.1361 112.466C59.7022 113.356 58.2272 113.705 55.7007 114.077C53.1742 114.449 49.2653 114.399 49.2653 114.399C49.2653 114.399 41.4206 114.456 36.3946 114.399C31.3685 114.343 27.9627 114.154 22.5585 114.077Z"/>
</clipPath><linearGradient id="paint0_linear_32_18" x1="116.63" y1="141.169" x2="50.9514" y2="1.0609" gradientUnits="userSpaceOnUse">
<stop stop-color="white"/>
<stop offset="0.495192" stop-color="white" stop-opacity="0.48"/>
<stop offset="1" stop-color="white"/>
</linearGradient>
<linearGradient id="paint1_linear_32_18" x1="41.8077" y1="1" x2="126.053" y2="141.08" gradientUnits="userSpaceOnUse">
<stop stop-color="white"/>
<stop offset="0.5" stop-color="white" stop-opacity="0.01"/>
<stop offset="1" stop-color="white"/>
</linearGradient>
</defs>
</svg>
